<svg width="1024" height="1024" viewBox="0 0 1024 1024" fill="none" xmlns="http://www.w3.org/2000/svg">
<g clip-path="url(#clip0_2_214)">
<path d="M595.148 817.64C740.573 817.64 858.463 687.961 858.463 527.993C858.463 368.026 740.573 238.347 595.148 238.347C449.723 238.347 331.833 368.026 331.833 527.993C331.833 687.961 449.723 817.64 595.148 817.64Z" fill="#6BCB77" stroke="#4CAF50" stroke-width="16.4166"/>
<path d="M595.148 761.939C712.607 761.939 807.826 657.198 807.826 527.993C807.826 398.789 712.607 294.048 595.148 294.048C477.69 294.048 382.471 398.789 382.471 527.993C382.471 657.198 477.69 761.939 595.148 761.939Z" fill="#98D8C8"/>
<path d="M595.148 706.237C684.641 706.237 757.189 626.435 757.189 527.993C757.189 429.552 684.641 349.749 595.148 349.749C505.656 349.749 433.108 429.552 433.108 527.993C433.108 626.435 505.656 706.237 595.148 706.237Z" fill="#6BCB77"/>
<path d="M595.149 650.536C656.675 650.536 706.551 595.672 706.551 527.993C706.551 460.314 656.675 405.45 595.149 405.45C533.623 405.45 483.746 460.314 483.746 527.993C483.746 595.672 533.623 650.536 595.149 650.536Z" fill="#98D8C8"/>
<path d="M717.327 644.039H664.263L643.17 589.163H546.601L526.661 644.039H474.915L569.013 402.451H620.593L717.327 644.039ZM627.514 548.459L594.226 458.811L561.597 548.459H627.514Z" fill="white"/>
<path d="M717.327 644.039V651.07H727.716L723.854 641.425L717.327 644.039ZM664.263 644.039L657.7 646.562L659.433 651.07H664.263V644.039ZM643.17 589.163L649.733 586.64L648 582.132H643.17V589.163ZM546.601 589.163V582.132H541.675L539.992 586.761L546.601 589.163ZM526.661 644.039V651.07H531.587L533.269 646.44L526.661 644.039ZM474.915 644.039L468.364 641.487L464.631 651.07H474.915V644.039ZM569.013 402.451V395.42H564.206L562.461 399.899L569.013 402.451ZM620.593 402.451L627.12 399.838L625.352 395.42H620.593V402.451ZM627.514 548.459V555.49H637.626L634.106 546.011L627.514 548.459ZM594.226 458.811L600.818 456.363L594.16 438.434L587.619 456.406L594.226 458.811ZM561.597 548.459L554.99 546.054L551.555 555.49H561.597V548.459ZM717.327 644.039V637.008H664.263V644.039V651.07H717.327V644.039ZM664.263 644.039L670.827 641.516L649.733 586.64L643.17 589.163L636.607 591.685L657.7 646.562L664.263 644.039ZM643.17 589.163V582.132H546.601V589.163V596.194H643.17V589.163ZM546.601 589.163L539.992 586.761L520.052 641.638L526.661 644.039L533.269 646.44L553.209 591.564L546.601 589.163ZM526.661 644.039V637.008H474.915V644.039V651.07H526.661V644.039ZM474.915 644.039L481.467 646.591L575.564 405.003L569.013 402.451L562.461 399.899L468.364 641.487L474.915 644.039ZM569.013 402.451V409.482H620.593V402.451V395.42H569.013V402.451ZM620.593 402.451L614.066 405.065L710.8 646.653L717.327 644.039L723.854 641.425L627.12 399.838L620.593 402.451ZM627.514 548.459L634.106 546.011L600.818 456.363L594.226 458.811L587.635 461.258L620.923 550.906L627.514 548.459ZM594.226 458.811L587.619 456.406L554.99 546.054L561.597 548.459L568.204 550.863L600.833 461.216L594.226 458.811ZM561.597 548.459V555.49H627.514V548.459V541.427H561.597V548.459Z" fill="#2E7D32"/>
<path d="M182.18 301.828C182.908 296.266 182.979 285.822 182.755 280.142C182.374 270.48 183.755 250.243 178.938 242.271C170.685 228.612 161.37 226.23 158.911 208.447C153.154 166.807 197.677 146.381 229.333 169.386C244.565 180.594 246.798 207.342 238.49 223.32C235.457 229.151 228.554 235.23 226.76 241.917C223.923 254.209 224.535 272.379 225.697 284.905C235.684 284.099 262.143 284.948 269.31 282.255C271.646 277.135 270.967 245.949 268.072 241.745C255.901 224.075 243.175 213.761 250.688 189.919L252.236 184.273C254.937 176.063 262.842 168.584 270.498 164.901C280.641 159.568 292.51 158.486 303.462 161.894C306.956 162.951 311.141 164.814 313.865 167.303C321.71 171.601 327.218 180.178 329.68 188.604C330.376 191.043 331.017 193.496 331.603 195.963C334.616 223.807 320.51 225.442 312.932 245.564C310.397 252.294 311.161 289.614 311.841 298.281C314.692 306.178 332.861 316.419 339.801 331.179C340.726 334.741 346.387 344.793 347.869 349.893C351.713 363.126 354.342 376.306 355.936 389.971C358.95 415.836 358.845 442.699 359.204 468.741C359.315 476.802 357.851 488.716 359.302 496.179C359.022 501.781 358.222 510.747 358.248 516.139C357.174 518.84 356.434 529.516 356.132 533.192C353.203 568.899 350.4 611.025 354.387 646.787C359.128 668.432 362.217 681.363 373.651 701.555C376.791 707.1 381.274 712.972 383.949 717.635C393.284 730.794 405.482 747.922 417.442 759.451C445.187 786.196 484.629 807.783 522.519 815.941C522.898 815.987 523.277 816.034 523.656 816.08C548.12 824.047 565.157 825.249 590.582 823.956C641.241 821.381 684.668 808.791 726.258 779.542C738.318 772.715 748.432 761.859 757.955 752.593C763.833 746.872 785.822 717.094 790.064 715.977C812.274 720.308 836.171 748.816 848.479 766.198C867.742 793.402 876.851 832.187 843.819 853.349C823.021 866.673 797.157 863.956 773.282 863.909L714.146 863.801L524.371 863.799L341.997 863.772L289.536 863.812C268.906 863.819 250.979 863.911 230.459 860.338C202.512 855.472 160.093 822.969 152.13 795.799C143.066 777.512 145.038 721.588 144.783 699.643C144.014 656.912 143.575 614.175 143.468 571.437C142.772 531.783 142.45 492.124 142.5 452.465C142.369 406.669 137.49 352.967 169.832 315.806C173.856 311.181 179.209 308.295 181.882 302.49L182.18 301.828Z" fill="#FFDAB9" stroke="#FF8C42" stroke-width="10.06"/>
<path d="M199.776 230.234C215.2 230.234 227.703 217.626 227.703 202.074C227.703 186.522 215.2 173.914 199.776 173.914C184.352 173.914 171.849 186.522 171.849 202.074C171.849 217.626 184.352 230.234 199.776 230.234Z" fill="white" stroke="#333333" stroke-width="10.06"/>
<path d="M205.982 223.977C214.551 223.977 221.497 216.973 221.497 208.333C221.497 199.693 214.551 192.688 205.982 192.688C197.413 192.688 190.467 199.693 190.467 208.333C190.467 216.973 197.413 223.977 205.982 223.977Z" fill="black"/>
<path d="M212.188 208.332C215.615 208.332 218.394 205.53 218.394 202.074C218.394 198.618 215.615 195.816 212.188 195.816C208.76 195.816 205.981 198.618 205.981 202.074C205.981 205.53 208.76 208.332 212.188 208.332Z" fill="white"/>
<path d="M289.536 230.234C304.959 230.234 317.463 217.626 317.463 202.074C317.463 186.522 304.959 173.914 289.536 173.914C274.112 173.914 261.608 186.522 261.608 202.074C261.608 217.626 274.112 230.234 289.536 230.234Z" fill="white" stroke="#333333" stroke-width="10.06"/>
<path d="M295.741 223.977C304.31 223.977 311.256 216.973 311.256 208.333C311.256 199.693 304.31 192.688 295.741 192.688C287.172 192.688 280.226 199.693 280.226 208.333C280.226 216.973 287.172 223.977 295.741 223.977Z" fill="black"/>
<path d="M301.947 208.332C305.375 208.332 308.153 205.53 308.153 202.074C308.153 198.618 305.375 195.816 301.947 195.816C298.52 195.816 295.741 198.618 295.741 202.074C295.741 205.53 298.52 208.332 301.947 208.332Z" fill="white"/>
<path d="M171.849 377.493C212.188 404.8 252.527 404.8 292.867 377.493" stroke="#FF6347" stroke-width="15.09" stroke-linecap="round"/>
</g>
<defs>
<clipPath id="clip0_2_214">
<rect width="1024" height="1024" fill="white"/>
</clipPath>
</defs>
</svg>
