<svg width="1024" height="1024" viewBox="0 0 1024 1024" fill="none" xmlns="http://www.w3.org/2000/svg">
<g clip-path="url(#clip0_2_215)">
<path d="M643.555 806.11C800.71 806.11 928.11 678.71 928.11 521.555C928.11 364.4 800.71 237 643.555 237C486.4 237 359 364.4 359 521.555C359 678.71 486.4 806.11 643.555 806.11Z" fill="#FF69B4" stroke="#FF1493" stroke-width="17.52"/>
<path d="M643.554 749.199C769.278 749.199 871.198 647.279 871.198 521.555C871.198 395.831 769.278 293.911 643.554 293.911C517.83 293.911 415.91 395.831 415.91 521.555C415.91 647.279 517.83 749.199 643.554 749.199Z" fill="#FFB6C1"/>
<path d="M753.884 636.59H705.109L685.721 586.149H596.957L578.628 636.59H531.065L617.557 414.528H664.969L753.884 636.59ZM671.331 548.735L640.733 466.332L610.741 548.735H671.331ZM589.08 401.804V365.299H625.585V401.804H589.08ZM654.214 401.804V365.299H690.871V401.804H654.214Z" fill="white"/>
<path d="M753.884 636.59V645.35H766.828L762.017 633.334L753.884 636.59ZM705.109 636.59L696.933 639.733L699.092 645.35H705.109V636.59ZM685.721 586.149L693.897 583.006L691.738 577.389H685.721V586.149ZM596.957 586.149V577.389H590.819L588.723 583.157L596.957 586.149ZM578.628 636.59V645.35H584.765L586.861 639.582L578.628 636.59ZM531.065 636.59L522.902 633.411L518.252 645.35H531.065V636.59ZM617.557 414.528V405.768H611.568L609.394 411.349L617.557 414.528ZM664.969 414.528L673.101 411.272L670.897 405.768H664.969V414.528ZM671.331 548.735V557.495H683.928L679.543 545.685L671.331 548.735ZM640.733 466.332L648.945 463.283L640.65 440.946L632.501 463.336L640.733 466.332ZM610.741 548.735L602.509 545.738L598.23 557.495H610.741V548.735ZM589.08 401.804H580.32V410.564H589.08V401.804ZM589.08 365.299V356.539H580.32V365.299H589.08ZM625.585 365.299H634.345V356.539H625.585V365.299ZM625.585 401.804V410.564H634.345V401.804H625.585ZM654.214 401.804H645.454V410.564H654.214V401.804ZM654.214 365.299V356.539H645.454V365.299H654.214ZM690.871 365.299H699.631V356.539H690.871V365.299ZM690.871 401.804V410.564H699.631V401.804H690.871ZM753.884 636.59V627.83H705.109V636.59V645.35H753.884V636.59ZM705.109 636.59L713.286 633.447L693.897 583.006L685.721 586.149L677.544 589.292L696.933 639.733L705.109 636.59ZM685.721 586.149V577.389H596.957V586.149V594.909H685.721V586.149ZM596.957 586.149L588.723 583.157L570.395 633.598L578.628 636.59L586.861 639.582L605.19 589.14L596.957 586.149ZM578.628 636.59V627.83H531.065V636.59V645.35H578.628V636.59ZM531.065 636.59L539.228 639.769L625.72 417.707L617.557 414.528L609.394 411.349L522.902 633.411L531.065 636.59ZM617.557 414.528V423.288H664.969V414.528V405.768H617.557V414.528ZM664.969 414.528L656.836 417.784L745.752 639.846L753.884 636.59L762.017 633.334L673.101 411.272L664.969 414.528ZM671.331 548.735L679.543 545.685L648.945 463.283L640.733 466.332L632.521 469.382L663.118 551.784L671.331 548.735ZM640.733 466.332L632.501 463.336L602.509 545.738L610.741 548.735L618.972 551.731L648.964 469.328L640.733 466.332ZM610.741 548.735V557.495H671.331V548.735V539.975H610.741V548.735ZM589.08 401.804H597.84V365.299H589.08H580.32V401.804H589.08ZM589.08 365.299V374.059H625.585V365.299V356.539H589.08V365.299ZM625.585 365.299H616.825V401.804H625.585H634.345V365.299H625.585ZM625.585 401.804V393.044H589.08V401.804V410.564H625.585V401.804ZM654.214 401.804H662.974V365.299H654.214H645.454V401.804H654.214ZM654.214 365.299V374.059H690.871V365.299V356.539H654.214V365.299ZM690.871 365.299H682.111V401.804H690.871H699.631V365.299H690.871ZM690.871 401.804V393.044H654.214V401.804V410.564H690.871V401.804Z" fill="#C71585"/>
<path d="M193.165 297.665C193.951 292.201 194.028 281.941 193.786 276.36C193.374 266.869 194.867 246.987 189.661 239.155C180.742 225.736 170.676 223.396 168.019 205.925C161.797 165.017 209.911 144.95 244.121 167.551C260.582 178.562 262.995 204.84 254.017 220.537C250.739 226.266 243.279 232.238 241.341 238.807C238.275 250.883 238.936 268.734 240.192 281.039C250.985 280.248 279.578 281.082 287.323 278.436C289.847 273.406 289.114 242.769 285.985 238.639C272.832 221.279 259.08 211.146 267.199 187.723L268.871 182.177C271.791 174.111 280.333 166.764 288.606 163.145C299.568 157.906 312.394 156.842 324.23 160.191C328.006 161.229 332.528 163.059 335.471 165.504C343.95 169.727 349.902 178.154 352.562 186.431C353.315 188.827 354.008 191.238 354.641 193.661C357.896 221.016 342.653 222.622 334.463 242.391C331.724 249.002 332.549 285.666 333.284 294.181C336.365 301.939 356 312 363.5 326.5C364.5 330 370.617 339.874 372.219 344.885C376.373 357.885 379.214 370.834 380.936 384.259C384.194 409.669 384.08 436.06 384.468 461.644C384.588 469.563 383.006 481.268 384.574 488.599C384.271 494.103 383.407 502.911 383.435 508.209C382.275 510.863 381.475 521.351 381.148 524.962C377.983 560.042 374.954 601.427 379.263 636.56C384.386 657.824 387.724 670.528 400.08 690.365C403.474 695.813 408.318 701.582 411.209 706.163C421.297 719.09 434.479 735.918 447.404 747.244C477.386 773.519 520.01 794.727 560.956 802.741C561.367 802.787 561.776 802.832 562.186 802.878C588.623 810.704 607.034 811.885 634.51 810.616C689.255 808.086 736.186 795.716 781.13 766.982C794.163 760.275 805.093 749.61 815.384 740.507C821.736 734.886 845.498 705.632 850.083 704.534C874.084 708.789 899.909 736.796 913.21 753.873C934.026 780.598 943.871 818.701 908.174 839.491C885.698 852.581 857.748 849.912 831.947 849.866L768.041 849.759L562.958 849.758L365.873 849.731L309.18 849.77C286.886 849.777 267.514 849.868 245.338 846.358C215.136 841.577 169.295 809.645 160.691 782.953C150.896 764.987 153.027 710.046 152.751 688.487C151.92 646.507 151.446 604.521 151.329 562.535C150.578 523.578 150.229 484.616 150.284 445.654C150.143 400.663 144.869 347.905 179.82 311.397C184.169 306.854 189.953 304.018 192.843 298.315L193.165 297.665Z" fill="#FFDAB9" stroke="#FF8C42" stroke-width="10.06"/>
<path d="M212.18 227.33C228.848 227.33 242.36 214.944 242.36 199.665C242.36 184.386 228.848 172 212.18 172C195.512 172 182 184.386 182 199.665C182 214.944 195.512 227.33 212.18 227.33Z" fill="white" stroke="#333333" stroke-width="10.06"/>
<path d="M218.887 221.182C228.147 221.182 235.653 214.301 235.653 205.813C235.653 197.324 228.147 190.443 218.887 190.443C209.627 190.443 202.12 197.324 202.12 205.813C202.12 214.301 209.627 221.182 218.887 221.182Z" fill="black"/>
<path d="M225.593 205.813C229.297 205.813 232.3 203.061 232.3 199.665C232.3 196.27 229.297 193.518 225.593 193.518C221.889 193.518 218.886 196.27 218.886 199.665C218.886 203.061 221.889 205.813 225.593 205.813Z" fill="white"/>
<path d="M309.18 227.33C325.848 227.33 339.36 214.944 339.36 199.665C339.36 184.386 325.848 172 309.18 172C292.512 172 279 184.386 279 199.665C279 214.944 292.512 227.33 309.18 227.33Z" fill="white" stroke="#333333" stroke-width="10.06"/>
<path d="M315.887 221.182C325.147 221.182 332.653 214.301 332.653 205.813C332.653 197.324 325.147 190.443 315.887 190.443C306.627 190.443 299.12 197.324 299.12 205.813C299.12 214.301 306.627 221.182 315.887 221.182Z" fill="black"/>
<path d="M322.593 205.813C326.297 205.813 329.3 203.061 329.3 199.665C329.3 196.27 326.297 193.518 322.593 193.518C318.889 193.518 315.886 196.27 315.886 199.665C315.886 203.061 318.889 205.813 322.593 205.813Z" fill="white"/>
<path d="M182 372C225.593 398.827 269.187 398.827 312.78 372" stroke="#FF6347" stroke-width="15.09" stroke-linecap="round"/>
</g>
<defs>
<clipPath id="clip0_2_215">
<rect width="1024" height="1024" fill="white"/>
</clipPath>
</defs>
</svg>
