<svg width="1024" height="1024" viewBox="0 0 1024 1024" fill="none" xmlns="http://www.w3.org/2000/svg">
<g clip-path="url(#clip0_2_233)">
<path d="M623.555 796.11C780.71 796.11 908.11 668.71 908.11 511.555C908.11 354.4 780.71 227 623.555 227C466.4 227 339 354.4 339 511.555C339 668.71 466.4 796.11 623.555 796.11Z" fill="#FF6347" stroke="#DC143C" stroke-width="23.97"/>
<path d="M623.555 739.198C749.279 739.198 851.199 637.278 851.199 511.554C851.199 385.83 749.279 283.91 623.555 283.91C497.83 283.91 395.911 385.83 395.911 511.554C395.911 637.278 497.83 739.198 623.555 739.198Z" fill="#FF7F50"/>
<path d="M623.554 682.288C717.848 682.288 794.287 605.849 794.287 511.555C794.287 417.262 717.848 340.822 623.554 340.822C529.261 340.822 452.821 417.262 452.821 511.555C452.821 605.849 529.261 682.288 623.554 682.288Z" fill="#FFA07A"/>
<path d="M741.393 593.757H692.619L673.23 543.316H584.466L566.137 593.757H518.574L605.066 371.695H652.478L741.393 593.757ZM658.84 505.902L628.242 423.499L598.25 505.902H658.84Z" fill="white"/>
<path d="M741.393 593.757V601.747H753.199L748.811 590.787L741.393 593.757ZM692.619 593.757L685.161 596.624L687.13 601.747H692.619V593.757ZM673.23 543.316L680.688 540.449L678.719 535.326H673.23V543.316ZM584.466 543.316V535.326H578.868L576.956 540.587L584.466 543.316ZM566.137 593.757V601.747H571.735L573.647 596.486L566.137 593.757ZM518.574 593.757L511.129 590.857L506.888 601.747H518.574V593.757ZM605.066 371.695V363.705H599.604L597.621 368.795L605.066 371.695ZM652.478 371.695L659.895 368.725L657.885 363.705H652.478V371.695ZM658.84 505.902V513.892H670.33L666.33 503.12L658.84 505.902ZM628.242 423.499L635.732 420.718L628.167 400.344L620.734 420.767L628.242 423.499ZM598.25 505.902L590.742 503.169L586.839 513.892H598.25V505.902ZM741.393 593.757V585.767H692.619V593.757V601.747H741.393V593.757ZM692.619 593.757L700.077 590.89L680.688 540.449L673.23 543.316L665.772 546.183L685.161 596.624L692.619 593.757ZM673.23 543.316V535.326H584.466V543.316V551.306H673.23V543.316ZM584.466 543.316L576.956 540.587L558.628 591.028L566.137 593.757L573.647 596.486L591.975 546.045L584.466 543.316ZM566.137 593.757V585.767H518.574V593.757V601.747H566.137V593.757ZM518.574 593.757L526.02 596.657L612.512 374.595L605.066 371.695L597.621 368.795L511.129 590.857L518.574 593.757ZM605.066 371.695V379.685H652.478V371.695V363.705H605.066V371.695ZM652.478 371.695L645.06 374.665L733.976 596.727L741.393 593.757L748.811 590.787L659.895 368.725L652.478 371.695ZM658.84 505.902L666.33 503.12L635.732 420.718L628.242 423.499L620.752 426.281L651.35 508.683L658.84 505.902ZM628.242 423.499L620.734 420.767L590.742 503.169L598.25 505.902L605.758 508.634L635.75 426.232L628.242 423.499ZM598.25 505.902V513.892H658.84V505.902V497.912H598.25V505.902Z" fill="#8B0000"/>
<path d="M193.165 297.665C193.951 292.201 194.028 281.941 193.786 276.36C193.374 266.869 194.867 246.987 189.661 239.155C180.742 225.736 170.676 223.396 168.019 205.925C161.797 165.017 209.911 144.95 244.121 167.551C260.582 178.562 262.995 204.84 254.017 220.537C250.739 226.266 243.279 232.238 241.341 238.807C238.275 250.883 238.936 268.734 240.192 281.039C250.985 280.248 279.578 281.082 287.323 278.436C289.847 273.406 289.114 242.769 285.985 238.639C272.832 221.279 259.08 211.146 267.199 187.723L268.871 182.177C271.791 174.111 280.333 166.764 288.606 163.145C299.568 157.906 312.394 156.842 324.23 160.191C328.006 161.229 332.528 163.059 335.471 165.504C343.95 169.727 349.902 178.154 352.562 186.431C353.315 188.827 354.008 191.238 354.641 193.661C357.896 221.016 342.653 222.622 334.463 242.391C331.724 249.002 332.549 285.666 333.284 294.181C336.365 301.939 356 312 363.5 326.5C364.5 330 370.617 339.874 372.219 344.885C376.373 357.885 379.214 370.834 380.936 384.259C384.194 409.669 384.08 436.06 384.468 461.644C384.588 469.563 383.006 481.268 384.574 488.599C384.271 494.103 383.407 502.911 383.435 508.209C382.275 510.863 381.475 521.351 381.148 524.962C377.983 560.042 374.954 601.427 379.263 636.56C384.386 657.824 387.724 670.528 400.08 690.365C403.474 695.813 408.318 701.582 411.209 706.163C421.297 719.09 434.479 735.918 447.404 747.244C477.386 773.519 520.01 794.727 560.956 802.741C561.367 802.787 561.776 802.832 562.186 802.878C588.623 810.704 607.034 811.885 634.51 810.616C689.255 808.086 736.186 795.716 781.13 766.982C794.163 760.275 805.093 749.61 815.384 740.507C821.736 734.886 845.498 705.632 850.083 704.534C874.084 708.789 899.909 736.796 913.21 753.873C934.026 780.598 943.871 818.701 908.174 839.491C885.698 852.581 857.748 849.912 831.947 849.866L768.041 849.759L562.958 849.758L365.873 849.731L309.18 849.77C286.886 849.777 267.514 849.868 245.338 846.358C215.136 841.577 169.295 809.645 160.691 782.953C150.896 764.987 153.027 710.046 152.751 688.487C151.92 646.507 151.446 604.521 151.329 562.535C150.578 523.578 150.229 484.616 150.284 445.654C150.143 400.663 144.869 347.905 179.82 311.397C184.169 306.854 189.953 304.018 192.843 298.315L193.165 297.665Z" fill="#FFDAB9" stroke="#FF8C42" stroke-width="10.06"/>
<path d="M212.18 227.33C228.848 227.33 242.36 214.944 242.36 199.665C242.36 184.386 228.848 172 212.18 172C195.512 172 182 184.386 182 199.665C182 214.944 195.512 227.33 212.18 227.33Z" fill="white" stroke="#333333" stroke-width="10.06"/>
<path d="M218.887 221.182C228.147 221.182 235.653 214.301 235.653 205.813C235.653 197.324 228.147 190.443 218.887 190.443C209.627 190.443 202.12 197.324 202.12 205.813C202.12 214.301 209.627 221.182 218.887 221.182Z" fill="black"/>
<path d="M225.593 205.813C229.297 205.813 232.3 203.061 232.3 199.665C232.3 196.27 229.297 193.518 225.593 193.518C221.889 193.518 218.886 196.27 218.886 199.665C218.886 203.061 221.889 205.813 225.593 205.813Z" fill="white"/>
<path d="M309.18 227.33C325.848 227.33 339.36 214.944 339.36 199.665C339.36 184.386 325.848 172 309.18 172C292.512 172 279 184.386 279 199.665C279 214.944 292.512 227.33 309.18 227.33Z" fill="white" stroke="#333333" stroke-width="10.06"/>
<path d="M315.887 221.182C325.147 221.182 332.653 214.301 332.653 205.813C332.653 197.324 325.147 190.443 315.887 190.443C306.627 190.443 299.12 197.324 299.12 205.813C299.12 214.301 306.627 221.182 315.887 221.182Z" fill="black"/>
<path d="M322.593 205.813C326.297 205.813 329.3 203.061 329.3 199.665C329.3 196.27 326.297 193.518 322.593 193.518C318.889 193.518 315.886 196.27 315.886 199.665C315.886 203.061 318.889 205.813 322.593 205.813Z" fill="white"/>
<path d="M182 372C225.593 398.827 269.187 398.827 312.78 372" stroke="#FF6347" stroke-width="15.09" stroke-linecap="round"/>
</g>
<defs>
<clipPath id="clip0_2_233">
<rect width="1024" height="1024" fill="white"/>
</clipPath>
</defs>
</svg>
